inDegrees=no
num_controls=7
num_derivatives=13
num_iterations=97
num_multipliers=7
num_parameters=0
num_slacks=7
num_states=26
objective=0.469941
objective_accelerations=0.064174
objective_balance=0.002073
objective_effort=0.020412
objective_height=0.373632
objective_ligament=0.009651
solver_duration=1296.670080
status=Solve_Succeeded
success=true
DataType=double
version=3
OpenSimVersion=4.5
endheader
time	/jointset/ground_pelvis/pelvis_tilt/value	/jointset/ground_pelvis/pelvis_tx/value	/jointset/ground_pelvis/pelvis_ty/value	/jointset/hip_l/hip_flexion_l/value	/jointset/hip_l/hip_adduction_l/value	/jointset/hip_l/hip_rotation_l/value	/jointset/back/lumbar_extension/value	/jointset/patellofemoral_l/patellar_flexion_l/value	/jointset/knee_l/knee_flexion_l/value	/jointset/knee_l/knee_adduction_l/value	/jointset/knee_l/knee_rotation_l/value	/jointset/ankle_l/ankle_angle_l/value	/jointset/subtalar_l/subtalar_angle_l/value	/jointset/ground_pelvis/pelvis_tilt/speed	/jointset/ground_pelvis/pelvis_tx/speed	/jointset/ground_pelvis/pelvis_ty/speed	/jointset/hip_l/hip_flexion_l/speed	/jointset/hip_l/hip_adduction_l/speed	/jointset/hip_l/hip_rotation_l/speed	/jointset/back/lumbar_extension/speed	/jointset/patellofemoral_l/patellar_flexion_l/speed	/jointset/knee_l/knee_flexion_l/speed	/jointset/knee_l/knee_adduction_l/speed	/jointset/knee_l/knee_rotation_l/speed	/jointset/ankle_l/ankle_angle_l/speed	/jointset/subtalar_l/subtalar_angle_l/speed	/forceset/tau_hip_flexion_l	/forceset/tau_hip_adduction_l	/forceset/tau_hip_rotation_l	/forceset/tau_knee_flexion_l	/forceset/tau_ankle_angle_l	/forceset/tau_subtalar_angle_l	/forceset/tau_lumbar_extension	lambda_cid13_p0	lambda_cid13_p1	lambda_cid13_p2	lambda_cid13_p3	lambda_cid13_p4	lambda_cid13_p5	lambda_cid14_p0	/jointset/ground_pelvis/pelvis_tilt/accel	/jointset/ground_pelvis/pelvis_tx/accel	/jointset/ground_pelvis/pelvis_ty/accel	/jointset/hip_l/hip_flexion_l/accel	/jointset/hip_l/hip_adduction_l/accel	/jointset/hip_l/hip_rotation_l/accel	/jointset/back/lumbar_extension/accel	/jointset/patellofemoral_l/patellar_flexion_l/accel	/jointset/knee_l/knee_flexion_l/accel	/jointset/knee_l/knee_adduction_l/accel	/jointset/knee_l/knee_rotation_l/accel	/jointset/ankle_l/ankle_angle_l/accel	/jointset/subtalar_l/subtalar_angle_l/accel	gamma_cid13_p0	gamma_cid13_p1	gamma_cid13_p2	gamma_cid13_p3	gamma_cid13_p4	gamma_cid13_p5	gamma_cid14_p0
1.5	-0.5566082292187775	-0.04141630261810611	0.7896673213529113	1.208696056758762	-0.3487997830422638	-0.114167053016408	-0.3396693812265584	0.5730953979528399	0.573095397953001	-0.06102049898476394	-0.1743155549767695	0.01639925277483891	0.07813255080119064	1.08057492155836	0.5022512378585402	0.4791786124004463	-2.841517937730009	-0.00697823292841593	-0.5203028010377193	0.608963784857299	-1.560692893534306	-1.560692893534522	-0.222070750973831	0.005624623953346696	0.0877548783964682	0.02499719044502358	-0.200054824524465	0.02174260674425057	0.007797800573123642	-0.06882873786423749	0.039913356966195	0.002394451589419645	0.1632240749286915	-11.35987729646522	-1.415533394677078	2.645669591275279	-7.703764061120541	-428.3893789113844	-54.79766881139045	-19.96732356516641	0.7540015891836594	0.8577835965893954	-0.6333605494830501	-1.65734434165275	0.2428989195964031	-0.2617108678048994	1.742918573918795	-0.5731788241746579	-0.5731788241746562	-0.3457434415149267	0.1801679798562979	0.2744948412639063	0.3350264156273335	1.473934776645079e-08	1.464978261071968e-06	-4.605227229564412e-08	2.861392020896311e-07	3.154951096513163e-07	-1.553612265402746e-07	2.573570221535202e-07
1.51	-0.5457654005406857	-0.03635150376371284	0.7944264749853975	1.180200249246281	-0.3488589477991331	-0.1193836046269332	-0.3334948846563587	0.5574615076607718	0.5574615076608757	-0.0632609563815143	-0.1742521714245495	0.01729007886312883	0.0783975858762111	1.087807723975759	0.5106321124876785	0.4725458918144006	-2.857229976306765	-0.004839654355461034	-0.5229486792410829	0.6258315278276778	-1.565875472299607	-1.565875472299606	-0.2259794443978186	0.007077937700699722	0.09040728342557007	0.02802467998706907	-0.1930108742066428	0.02100739652416621	0.008147736145504467	-0.06737753433621589	0.03693779029599761	0.001437801581642785	0.1579789636051191	-12.16709432129267	-1.045321169923163	2.799787941222952	-6.969602165194253	-424.4688642957917	-54.50435917161344	-20.49067065336453	0.6804947168388097	0.816818947540196	-0.6940567592018522	-1.466047461406076	0.2014730060905914	-0.2569202466935062	1.643101955333044	-0.459412155281574	-0.4594121552491156	-0.4070420276366105	0.1315699061235727	0.2601913086070034	0.2887440190247347	7.956309543411167e-08	1.322494085795786e-06	-5.878927998032577e-07	2.379699928031748e-07	4.517760842205301e-07	-1.501223680172843e-07	3.140119336838462e-07
1.52	-0.534855728808655	-0.03120518025273535	0.7991161356228159	1.151559738578887	-0.3488962996342838	-0.1246247938095147	-0.3271548306971083	0.541782068630533	0.5417820686305896	-0.0655392226594546	-0.1741735233680654	0.01820734459668479	0.0786933226057583	1.093943532345987	0.5185561691753821	0.4652800133869014	-2.870458568712283	-0.002615648584679699	-0.5252303154481047	0.6420752626674822	-1.569802641167859	-1.569802641167642	-0.2296325272136456	0.008677524806002077	0.09304280744962044	0.03113752135037761	-0.1859669238888438	0.02027218630406108	0.008497671717903792	-0.06592633080819636	0.03396222362579633	0.0004811515738430717	0.1527338522815279	-12.97784841555624	-0.6752355172293635	2.954779091770507	-6.226583007784502	-420.6001775997455	-54.27469033722602	-20.99256547777134	0.5346027797494404	0.7664200083025682	-0.7599921177737384	-1.160655107405188	0.259984359161669	-0.1888624685365716	1.618116947803868	-0.3220968447650644	-0.3220968447650612	-0.2946213198828396	0.209422651446112	0.2711186402537054	0.3520967798799559	1.105426504211448e-07	1.294216665386493e-06	-8.570504990291176e-07	2.185490723774416e-07	5.334321756676905e-07	-1.302409824681339e-07	3.464283076520099e-07
1.53	-0.5238901230397897	-0.02598197825174458	0.8037300566556284	1.122799269735088	-0.3489111018709173	-0.1298870490681923	-0.3206557278904294	0.5260696073748784	0.5260696073748139	-0.0678529248169866	-0.1740782644357914	0.01915082303604919	0.07902047667606647	1.098992742379657	0.5259989108506887	0.4574050503900551	-2.881211044321513	-0.0003408277126432455	-0.5271331560017114	0.6576215331620562	-1.572472000390905	-1.572472000390726	-0.2330885431402266	0.01041488622182966	0.09564761254140036	0.03429588767008589	-0.1789673148486497	0.01931358879697007	0.008827621345555588	-0.06456972353870502	0.03112947521438755	-0.0005773759159854636	0.1474851695446133	-13.75946421873655	-0.2627157413160303	3.099245673407295	-5.485133286439577	-416.911460166105	-54.00873471065451	-21.47019700818221	0.4623848000818592	0.720450347258382	-0.8160058698643416	-0.9688740228675474	0.2116656390052326	-0.1775707084412669	1.504317274327368	-0.2067853564827575	-0.2067853564885494	-0.3679575436205618	0.1617674403833887	0.2544120513514529	0.2979669006788624	1.055627506850112e-07	1.387283922023267e-06	-8.364826932056172e-07	2.296732088662263e-07	5.5704932879767e-07	-9.480191195368871e-08	3.530912354603762e-07
1.54	-0.5128795642336057	-0.02068689901397803	0.8082622765626274	1.093944010088157	-0.3489030689612752	-0.1351656479043412	-0.3140048753439962	0.5103369665478825	0.5103369665477504	-0.07020056029662643	-0.1739644569786525	0.02012019964787394	0.07937926647810421	1.102934139809573	0.5329316165305402	0.4489397882242413	-2.889416729338171	0.001951380670620167	-0.528499030942064	0.6724252106183597	-1.57383855543029	-1.57383855543015	-0.236419191649803	0.01238722978695133	0.09822244194163457	0.03746466769629848	-0.1719677058084738	0.01835499128986795	0.009157570973502069	-0.06321311626922628	0.02829672680297532	-0.001635903405829613	0.1422364868076832	-14.54474155515077	0.1502970530242669	3.2438035911054	-4.732332780724742	-413.2740464061924	-53.80546768616831	-21.92222948101661	0.3130402589985927	0.6644128092116081	-0.8780519515672416	-0.6512969888910063	0.2634618614070277	-0.08146934588580189	1.469598340149773	-0.06153600803311748	-0.06153600803311706	-0.2695478364819316	0.2564190813048856	0.2651235019446669	0.3541795211808365	1.016219039633527e-07	1.466787095176579e-06	-8.173329649841349e-07	2.349507260024763e-07	5.843949129328126e-07	-5.692511819412049e-08	3.571280907696311e-07
1.55	-0.501835128957981	-0.01532515588589325	0.8127069965616375	1.065019384108707	-0.3488720062759619	-0.1404556092751578	-0.3072098577303387	0.4945970211263102	0.4945970211261861	-0.0725806880650005	-0.1738300105272562	0.02111503695140869	0.0797697804372883	1.105765459366045	0.5393201726367794	0.4399136907342264	-2.895070442387808	0.004262922084082553	-0.5294169359224099	0.6864416018813518	-1.573928030879965	-1.573928030879884	-0.2395755130070258	0.01452843997385113	0.1007339321941863	0.040636996926455	-0.1651514103450224	0.01738494273651552	0.009461161938782251	-0.06179813398825185	0.0253759646375447	-0.00288746827132642	0.1370832231293669	-15.38667237823986	0.6516020749990851	3.380525160757776	-3.900402727215929	-409.9086274409297	-53.46016304716557	-22.34940756363001	0.2400915152293371	0.611598080391562	-0.9283400512541216	-0.4566617667887438	0.2150775381602857	-0.08521847585887431	1.347152984591215	0.0506496474070209	0.05064964739807026	-0.3337962839139426	0.1967131832377638	0.2425426626595317	0.2984371792786427	9.887822701924153e-08	1.530662085185905e-06	-7.998171087823693e-07	2.33491920841241e-07	6.160362980086867e-07	-1.623964330430195e-08	3.581392538516491e-07
1.56	-0.4907679977445396	-0.009902422982933817	0.8170587653050403	1.036051370338001	-0.3488178127251462	-0.1457524031761264	-0.3002787775110081	0.4788628415423806	0.478862841542316	-0.0749914034465969	-0.173673403734858	0.02213466533261908	0.08019195319984303	1.10747332737283	0.5451295715054719	0.4303495371027876	-2.898094287588992	0.006577553771323002	-0.5298655369727541	0.699637731753037	-1.572685387895971	-1.572685387895951	-0.2425367143071092	0.01681929799496279	0.1031806574767039	0.04379642837043573	-0.1583351148815849	0.01641489418316567	0.009764752904335639	-0.060383151707288	0.02245520247211543	-0.004139033136823188	0.1319299594510346	-16.23122661395554	1.153871428280734	3.516516996771772	-3.062385333486484	-406.5786301837798	-53.17202107297389	-22.75113189845325	0.08834994906111503	0.548581361702325	-0.9856631798520197	-0.1253234192002389	0.2640799161626098	0.0123914401145327	1.305546061888405	0.2048876787005553	0.2048876787005586	-0.2305238250540705	0.2863486481472233	0.25217050793794	0.3515999639456938	9.349387032925314e-08	1.601498078268119e-06	-7.708610590317232e-07	2.352042428760359e-07	6.399584129359255e-07	2.397403859995219e-08	3.583574720879021e-07
